#!OML:ASF E:\emotionWalksFemale\Project 1\Capture day 1\Session 1\Female1.ASF
:FULLY-SPECIFIED
:DEGREES
2481
root -8.32718 15.2877 36.0706 -6.45833 48.1075 349.927
lowerback 10.2887 0.7751 2.10162
upperback -2.52055 1.4068 1.00416
thorax -8.44062 0.606777 -0.363289
lowerneck -10.1263 8.55964 5.24666
upperneck 16.127 11.5241 -3.39804
head 7.10404 5.61 -0.850384
rclavicle 1.31453e-013 -7.15625e-015
rhumerus -40.3918 9.11158 -84.8996
rradius 28.8869
rwrist 18.7954
rhand -3.38542 -51.3147
rfingers 7.12502
rthumb 22.344 -440.043
lclavicle 1.31453e-013 -7.15625e-015
lhumerus -35.359 -1.23154 89.5133
lradius 42.4426
lwrist -11.1901
lhand -11.5285 -27.3665
lfingers 7.12502
lthumb 14.5113 2.10606
rfemur 0.523469 15.5435 24.8884
rtibia 9.42136
rfoot -4.16837 -32.3731
rtoes -21.815
lfemur -20.2116 -1.00805 -19.484
ltibia 71.0381
lfoot -11.8379 4.17701
ltoes 2.35665
2482
root -8.30559 15.2905 36.1744 -6.56537 49.0589 349.868
lowerback 10.4242 0.901401 1.85943
upperback -2.44506 1.54699 1.0298
thorax -8.44132 0.68809 -0.226055
lowerneck -10.2838 8.36449 4.91863
upperneck 16.1273 11.2675 -3.20107
head 7.08837 5.48196 -0.758894
rclavicle 1.56108e-014 3.18055e-015
rhumerus -40.4265 9.95543 -85.0349
rradius 28.9915
rwrist 19.239
rhand -3.21169 -51.7332
rfingers 7.12502
rthumb 22.5108 -440.441
lclavicle 1.56108e-014 3.18055e-015
lhumerus -35.6021 -1.11264 89.2024
lradius 41.7695
lwrist -11.7954
lhand -10.2148 -27.6588
lfingers 7.12502
lthumb 15.7768 1.71828
rfemur 0.583939 15.4821 25.2606
rtibia 10.5037
rfoot -5.43939 -33.1134
rtoes -19.9426
lfemur -21.2577 -0.215395 -19.875
ltibia 71.0496
lfoot -12.5679 2.95949
ltoes 1.67399
2483
root -8.28188 15.2818 36.269 -6.34547 50.0951 350.015
lowerback 10.5066 1.05468 1.87297
upperback -2.46472 1.73888 0.827311
thorax -8.50023 0.773469 -0.483853
lowerneck -10.2682 8.0264 4.46114
upperneck 15.9649 10.7972 -2.78402
head 6.96284 5.26674 -0.611494
rclavicle -2.76435e-014 -7.95139e-016
rhumerus -40.5647 10.2 -85.1641
rradius 29.5119
rwrist 20.3086
rhand -1.99668 -53.3039
rfingers 7.12502
rthumb 23.6766 -441.866
lclavicle -2.76435e-014 -7.95139e-016
lhumerus -35.7833 -1.25647 88.7691
lradius 40.9638
lwrist -12.4352
lhand -8.79791 -27.7534
lfingers 7.12502
lthumb 17.141 1.51055
rfemur 0.539355 15.7728 25.4273
rtibia 11.3609
rfoot -5.36906 -34.3446
rtoes -20.6938
lfemur -22.4934 0.395792 -20.4781
ltibia 70.9558
lfoot -12.9479 2.20361
ltoes 3.15628
2484
root -8.25031 15.277 36.3584 -6.09454 51.2631 350.028
lowerback 10.4986 1.12252 2.14422
upperback -2.57671 1.84646 0.563017
thorax -8.59752 0.80176 -0.936881
lowerneck -10.1915 7.69294 4.35374
upperneck 15.9345 10.3457 -2.69511
head 6.91187 5.05367 -0.616666
rclavicle -1.32888e-013 -8.74653e-015
rhumerus -40.8698 10.9008 -85.7419
rradius 29.5264
rwrist 18.8957
rhand -4.32668 -53.0124
rfingers 7.12502
rthumb 21.4402 -441.846
lclavicle -1.32888e-013 -8.74653e-015
lhumerus -36.0395 -1.60656 88.2734
lradius 40.2306
lwrist -12.9232
lhand -7.57667 -27.405
lfingers 7.12502
lthumb 18.3161 1.75271
rfemur 0.509315 15.9836 25.5819
rtibia 11.9134
rfoot -5.81231 -35.6142
rtoes -20.2221
lfemur -24.0507 1.10296 -21.1923
ltibia 70.7876
lfoot -12.1768 3.23999
ltoes -6.91635
2485
root -8.21321 15.2801 36.4531 -6.34253 52.389 349.601
lowerback 10.534 1.12615 2.36143
upperback -2.62357 1.88389 0.564506
thorax -8.66148 0.807456 -1.06557
lowerneck -10.1734 7.46049 4.18159
upperneck 15.9567 10.068 -2.73784
head 6.89871 4.90802 -0.631625
rclavicle -4.68138e-014 -9.54166e-015
rhumerus -41.0855 11.861 -86.0419
rradius 29.815
rwrist 17.3919
rhand -4.81544 -52.055
rfingers 7.12502
rthumb 20.9707 -440.941
lclavicle -4.68138e-014 -9.54166e-015
lhumerus -36.4394 -1.71066 87.8528
lradius 39.6861
lwrist -13.4992
lhand -6.87506 -26.9848
lfingers 7.12502
lthumb 18.991 2.10806
rfemur 0.600387 15.6014 26.0141
rtibia 12.5566
rfoot -7.00112 -36.1513
rtoes -18.2792
lfemur -25.2067 1.33701 -21.3781
ltibia 70.4984
lfoot -13.1064 3.16812
ltoes 1.23792
2486
root -8.1822 15.2785 36.5459 -6.88728 53.5948 348.958
lowerback 10.752 1.10767 2.62961
upperback -2.61897 1.91084 0.641309
thorax -8.77723 0.806876 -1.14516
lowerneck -10.0815 7.15703 3.76692
upperneck 15.7509 9.70919 -2.69961
head 6.78013 4.71836 -0.598639
rclavicle -1.24489e-013 -1.51076e-014
rhumerus -41.2022 12.3648 -86.0713
rradius 30.1989
rwrist 16.9606
rhand -5.01026 -51.5809
rfingers 7.12502
rthumb 20.7836 -440.488
lclavicle -1.24489e-013 -1.51076e-014
lhumerus -37.0274 -1.53988 87.3565
lradius 39.4487
lwrist -14.5892
lhand -6.30251 -26.7413
lfingers 7.12502
lthumb 19.5415 2.29662
rfemur 0.881094 15.295 26.6673
rtibia 13.0772
rfoot -7.99538 -36.8077
rtoes -17.0372
lfemur -26.3153 1.65775 -21.4613
ltibia 70.1488
lfoot -14.8541 2.69274
ltoes -1.74469
2487
root -8.16791 15.2684 36.6294 -7.41399 55.0465 348.079
lowerback 11.054 1.00443 3.05363
upperback -2.74342 1.85121 0.666874
thorax -9.08008 0.749535 -1.35498
lowerneck -9.9808 6.84686 3.56884
upperneck 15.6283 9.3215 -2.72934
head 6.70189 4.52128 -0.620709
rclavicle 2.53699e-014 1.03368e-014
rhumerus -41.2699 12.4338 -86.0286
rradius 30.6139
rwrist 16.6509
rhand -5.07954 -51.4203
rfingers 7.12502
rthumb 20.717 -440.335
lclavicle 2.53699e-014 1.03368e-014
lhumerus -37.2141 -1.49711 86.706
lradius 38.8966
lwrist -15.7189
lhand -5.57172 -26.5511
lfingers 7.12502
lthumb 20.244 2.41399
rfemur 0.870995 14.9316 27.3614
rtibia 13.5075
rfoot -8.98546 -37.5906
rtoes -16.1717
lfemur -27.8027 1.72732 -21.4088
ltibia 69.7243
lfoot -15.0677 3.6345
ltoes -3.41511
2488
root -8.12432 15.2654 36.7178 -7.65859 55.9875 347.357
lowerback 10.7875 1.09584 3.54298
upperback -2.84494 2.02847 0.578941
thorax -9.00965 0.806426 -1.75036
lowerneck -9.88368 6.53481 3.28004
upperneck 15.4588 8.87052 -2.34563
head 6.58428 4.32153 -0.504402
rclavicle -3.60297e-015 3.18055e-015
rhumerus -41.5088 12.6731 -86.2122
rradius 31.3408
rwrist 15.3051
rhand -5.09712 -51.5947
rfingers 7.12502
rthumb 20.7001 -440.511
lclavicle -3.60297e-015 3.18055e-015
lhumerus -36.6003 -1.83688 86.0439
lradius 37.6082
lwrist -16.3585
lhand -5.203 -26.5266
lfingers 7.12502
lthumb 20.5984 2.40052
rfemur 0.669707 14.5603 27.8236
rtibia 13.9757
rfoot -9.7332 -37.7724
rtoes -15.7866
lfemur -29.1832 1.95682 -21.4449
ltibia 69.0931
lfoot -15.5869 4.3052
ltoes -0.13219
2489
root -8.08257 15.2613 36.8007 -7.45615 57.0702 347.171
lowerback 10.6279 1.22678 3.7798
upperback -2.98832 2.2119 0.325767
thorax -9.04505 0.871472 -2.18376
lowerneck -9.88993 6.18825 3.45143
upperneck 15.4702 8.37703 -2.38764
head 6.58393 4.0904 -0.589861
rclavicle 6.70401e-014 1.82882e-014
rhumerus -41.8536 12.8046 -86.4669
rradius 32.1105
rwrist 13.8836
rhand -5.29375 -51.9872
rfingers 7.12502
rthumb 20.5112 -440.924
lclavicle 6.70401e-014 1.82882e-014
lhumerus -36.884 -2.21429 85.3364
lradius 37.2446
lwrist -16.9938
lhand -5.35277 -26.9901
lfingers 7.12502
lthumb 20.4544 1.95256
rfemur 0.583847 14.3244 27.9437
rtibia 14.2206
rfoot -10.4666 -38.2527
rtoes -15.2911
lfemur -30.5521 2.01475 -21.8544
ltibia 68.2631
lfoot -15.9793 5.22513
ltoes 1.95398
2490
root -8.04397 15.2526 36.8801 -7.42809 58.1695 347.059
lowerback 10.8279 1.29261 3.93802
upperback -3.08588 2.31893 0.147315
thorax -9.24903 0.901579 -2.49136
lowerneck -9.91211 5.87387 3.42352
upperneck 15.5276 7.96418 -2.4391
head 6.59447 3.88604 -0.638233
rclavicle 3.30728e-014 8.74653e-015
rhumerus -42.0833 12.8713 -86.4941
rradius 32.7152
rwrist 12.9259
rhand -5.17059 -52.1469
rfingers 7.12502
rthumb 20.6295 -441.071
lclavicle 3.30728e-014 8.74653e-015
lhumerus -37.3494 -2.09288 84.5947
lradius 37.0329
lwrist -17.7201
lhand -5.92257 -27.5004
lfingers 7.12502
lthumb 19.9068 1.50004
rfemur 0.938761 14.1738 28.1083
rtibia 14.1143
rfoot -11.16 -38.9111
rtoes -14.6693
lfemur -31.5692 2.07433 -22.3484
ltibia 67.1621
lfoot -16.0379 6.81063
ltoes -5.52047
2491
root -8.00572 15.2597 36.964 -7.81894 59.2297 346.592
lowerback 11.1828 1.24842 4.0437
upperback -3.13758 2.29909 0.198107
thorax -9.51382 0.87947 -2.50651
lowerneck -9.96838 5.67011 2.98509
upperneck 15.532 7.73575 -2.31163
head 6.57547 3.76114 -0.547794
rclavicle -1.70209e-014 -1.35174e-014
rhumerus -42.0979 13.2012 -86.3323
rradius 33.2014
rwrist 12.0552
rhand -4.8282 -51.9358
rfingers 7.12502
rthumb 20.9585 -440.824
lclavicle -1.70209e-014 -1.35174e-014
lhumerus -37.7835 -1.48645 83.8689
lradius 36.8133
lwrist -18.3712
lhand -6.67333 -27.4615
lfingers 7.12502
lthumb 19.185 1.61223
rfemur 1.50121 14.027 28.5687
rtibia 13.8181
rfoot -11.5422 -39.5757
rtoes -13.8327
lfemur -32.4146 1.80986 -22.4154
ltibia 65.9571
lfoot -16.4965 7.50259
ltoes -4.34209
2492
root -7.96005 15.2697 37.0558 -7.7684 60.1261 346.22
lowerback 10.9692 1.28688 3.98749
upperback -3.23384 2.33796 0.223211
thorax -9.49467 0.902288 -2.44958
lowerneck -10.0459 5.49348 2.5379
upperneck 15.4625 7.51487 -2.03005
head 6.53163 3.65135 -0.406946
rclavicle 2.09718e-014 -3.97569e-015
rhumerus -42.0065 13.5891 -86.2545
rradius 33.6013
rwrist 11.1507
rhand -4.79855 -51.9565
rfingers 7.12502
rthumb 20.987 -440.841
lclavicle 2.09718e-014 -3.97569e-015
lhumerus -38.1489 -1.01488 83.0537
lradius 36.7138
lwrist -18.9145
lhand -7.41554 -27.0212
lfingers 7.12502
lthumb 18.4711 2.12185
rfemur 1.74397 14.2792 28.9774
rtibia 13.362
rfoot -12.3301 -40.4381
rtoes -11.4116
lfemur -33.5011 1.69782 -22.4823
ltibia 64.5601
lfoot -16.717 8.43696
ltoes -3.30915
2493
root -7.91723 15.2719 37.1386 -7.99346 61.0915 345.862
lowerback 10.9995 1.34402 3.89782
upperback -3.20009 2.40345 0.243536
thorax -9.47479 0.940764 -2.38985
lowerneck -10.0651 5.24434 2.25522
upperneck 15.3211 7.19038 -1.88851
head 6.46597 3.49058 -0.348238
rclavicle -1.45858e-014 1.59028e-015
rhumerus -41.8184 13.6995 -86.0272
rradius 33.9506
rwrist 10.331
rhand -5.01721 -51.9606
rfingers 7.12502
rthumb 20.7769 -440.868
lclavicle -1.45858e-014 1.59028e-015
lhumerus -38.3319 -0.624637 82.2725
lradius 36.5999
lwrist -19.2781
lhand -8.22488 -26.7741
lfingers 7.12502
lthumb 17.6924 2.44095
rfemur 2.33409 14.198 29.3673
rtibia 12.6684
rfoot -12.9905 -41.1537
rtoes -9.65871
lfemur -34.2307 1.45245 -22.5359
ltibia 63.0052
lfoot -16.9863 9.28288
ltoes -2.21733
